<mxfile host="Electron" agent="Mozilla/5.0 (Windows NT 10.0; Win64; x64) AppleWebKit/537.36 (KHTML, like Gecko) draw.io/24.7.8 Chrome/128.0.6613.36 Electron/32.0.1 Safari/537.36" version="24.7.8">
  <diagram name="Page-1" id="hgtxtsrkwq2WXphA6Hvr">
    <mxGraphModel dx="780" dy="496" grid="1" gridSize="10" guides="1" tooltips="1" connect="1" arrows="1" fold="1" page="1" pageScale="1" pageWidth="850" pageHeight="1100" math="0" shadow="0">
      <root>
        <mxCell id="0" />
        <mxCell id="1" parent="0" />
        <mxCell id="yYdjSkQEQzfeJPl49f_F-5" value="" style="edgeStyle=orthogonalEdgeStyle;rounded=0;orthogonalLoop=1;jettySize=auto;html=1;" edge="1" parent="1" source="yYdjSkQEQzfeJPl49f_F-1" target="yYdjSkQEQzfeJPl49f_F-4">
          <mxGeometry relative="1" as="geometry" />
        </mxCell>
        <mxCell id="yYdjSkQEQzfeJPl49f_F-1" value="Mulai" style="strokeWidth=2;html=1;shape=mxgraph.flowchart.start_1;whiteSpace=wrap;" vertex="1" parent="1">
          <mxGeometry x="345" y="80" width="100" height="60" as="geometry" />
        </mxCell>
        <mxCell id="yYdjSkQEQzfeJPl49f_F-7" value="" style="edgeStyle=orthogonalEdgeStyle;rounded=0;orthogonalLoop=1;jettySize=auto;html=1;" edge="1" parent="1" source="yYdjSkQEQzfeJPl49f_F-4" target="yYdjSkQEQzfeJPl49f_F-6">
          <mxGeometry relative="1" as="geometry" />
        </mxCell>
        <mxCell id="yYdjSkQEQzfeJPl49f_F-4" value="Halaman tambah pembayaran" style="shape=process;whiteSpace=wrap;html=1;backgroundOutline=1;strokeWidth=2;" vertex="1" parent="1">
          <mxGeometry x="335" y="180" width="120" height="60" as="geometry" />
        </mxCell>
        <mxCell id="yYdjSkQEQzfeJPl49f_F-30" style="edgeStyle=orthogonalEdgeStyle;rounded=0;orthogonalLoop=1;jettySize=auto;html=1;" edge="1" parent="1" source="yYdjSkQEQzfeJPl49f_F-6">
          <mxGeometry relative="1" as="geometry">
            <mxPoint x="395" y="450" as="targetPoint" />
          </mxGeometry>
        </mxCell>
        <mxCell id="yYdjSkQEQzfeJPl49f_F-6" value="Input&lt;div&gt;1. Nama siswa&lt;/div&gt;&lt;div&gt;2. Jumlah pembayaran&lt;/div&gt;&lt;div&gt;3. Jatuh tempo&lt;/div&gt;" style="shape=parallelogram;perimeter=parallelogramPerimeter;whiteSpace=wrap;html=1;fixedSize=1;strokeWidth=2;" vertex="1" parent="1">
          <mxGeometry x="320" y="290" width="150" height="90" as="geometry" />
        </mxCell>
        <mxCell id="yYdjSkQEQzfeJPl49f_F-13" style="edgeStyle=orthogonalEdgeStyle;rounded=0;orthogonalLoop=1;jettySize=auto;html=1;" edge="1" parent="1" source="yYdjSkQEQzfeJPl49f_F-8">
          <mxGeometry relative="1" as="geometry">
            <mxPoint x="400" y="700" as="targetPoint" />
          </mxGeometry>
        </mxCell>
        <mxCell id="yYdjSkQEQzfeJPl49f_F-8" value="Halaman Detail Pembayaran" style="shape=process;whiteSpace=wrap;html=1;backgroundOutline=1;strokeWidth=2;" vertex="1" parent="1">
          <mxGeometry x="340" y="570" width="120" height="60" as="geometry" />
        </mxCell>
        <mxCell id="yYdjSkQEQzfeJPl49f_F-16" value="" style="edgeStyle=orthogonalEdgeStyle;rounded=0;orthogonalLoop=1;jettySize=auto;html=1;" edge="1" parent="1" source="yYdjSkQEQzfeJPl49f_F-10" target="yYdjSkQEQzfeJPl49f_F-15">
          <mxGeometry relative="1" as="geometry" />
        </mxCell>
        <mxCell id="yYdjSkQEQzfeJPl49f_F-19" value="" style="edgeStyle=orthogonalEdgeStyle;rounded=0;orthogonalLoop=1;jettySize=auto;html=1;" edge="1" parent="1" source="yYdjSkQEQzfeJPl49f_F-10" target="yYdjSkQEQzfeJPl49f_F-18">
          <mxGeometry relative="1" as="geometry" />
        </mxCell>
        <mxCell id="yYdjSkQEQzfeJPl49f_F-10" value="Apakah jumlah&lt;div&gt;&amp;nbsp;pembayaran&amp;nbsp;&lt;/div&gt;&lt;div&gt;sama dengan&amp;nbsp;&lt;/div&gt;&lt;div&gt;total tagihan&lt;/div&gt;" style="strokeWidth=2;html=1;shape=mxgraph.flowchart.decision;whiteSpace=wrap;" vertex="1" parent="1">
          <mxGeometry x="325" y="700" width="150" height="160" as="geometry" />
        </mxCell>
        <mxCell id="yYdjSkQEQzfeJPl49f_F-23" value="" style="edgeStyle=orthogonalEdgeStyle;rounded=0;orthogonalLoop=1;jettySize=auto;html=1;" edge="1" parent="1" source="yYdjSkQEQzfeJPl49f_F-15">
          <mxGeometry relative="1" as="geometry">
            <mxPoint x="400" y="1060" as="targetPoint" />
          </mxGeometry>
        </mxCell>
        <mxCell id="yYdjSkQEQzfeJPl49f_F-15" value="Status pembayaran selesai" style="whiteSpace=wrap;html=1;strokeWidth=2;" vertex="1" parent="1">
          <mxGeometry x="340" y="920" width="120" height="60" as="geometry" />
        </mxCell>
        <mxCell id="yYdjSkQEQzfeJPl49f_F-21" style="edgeStyle=orthogonalEdgeStyle;rounded=0;orthogonalLoop=1;jettySize=auto;html=1;entryX=1;entryY=0.25;entryDx=0;entryDy=0;" edge="1" parent="1" source="yYdjSkQEQzfeJPl49f_F-18" target="yYdjSkQEQzfeJPl49f_F-8">
          <mxGeometry relative="1" as="geometry">
            <Array as="points">
              <mxPoint x="610" y="585" />
            </Array>
          </mxGeometry>
        </mxCell>
        <mxCell id="yYdjSkQEQzfeJPl49f_F-18" value="Pending" style="whiteSpace=wrap;html=1;strokeWidth=2;" vertex="1" parent="1">
          <mxGeometry x="550" y="750" width="120" height="60" as="geometry" />
        </mxCell>
        <mxCell id="yYdjSkQEQzfeJPl49f_F-20" value="T" style="text;html=1;align=center;verticalAlign=middle;resizable=0;points=[];autosize=1;strokeColor=none;fillColor=none;" vertex="1" parent="1">
          <mxGeometry x="495" y="750" width="30" height="30" as="geometry" />
        </mxCell>
        <mxCell id="yYdjSkQEQzfeJPl49f_F-28" style="edgeStyle=orthogonalEdgeStyle;rounded=0;orthogonalLoop=1;jettySize=auto;html=1;" edge="1" parent="1" source="yYdjSkQEQzfeJPl49f_F-27">
          <mxGeometry relative="1" as="geometry">
            <mxPoint x="400" y="570" as="targetPoint" />
          </mxGeometry>
        </mxCell>
        <mxCell id="yYdjSkQEQzfeJPl49f_F-27" value="Kirim notifikasi tagihan" style="whiteSpace=wrap;html=1;strokeWidth=2;" vertex="1" parent="1">
          <mxGeometry x="340" y="450" width="120" height="60" as="geometry" />
        </mxCell>
        <mxCell id="yYdjSkQEQzfeJPl49f_F-31" value="Selesai" style="strokeWidth=2;html=1;shape=mxgraph.flowchart.start_1;whiteSpace=wrap;" vertex="1" parent="1">
          <mxGeometry x="350" y="1060" width="100" height="60" as="geometry" />
        </mxCell>
      </root>
    </mxGraphModel>
  </diagram>
</mxfile>
